<svg width="1000" height="1000" viewBox="0 0 1000 1000" fill="none" xmlns="http://www.w3.org/2000/svg">
<path d="M482.46 10.4701C430.47 17.3401 392.7 35.7301 360.33 70.0701C332.86 99.2501 315.45 135.55 309.56 174.79C306.37 197.35 306.37 556.4 309.56 578.96C312.99 602.26 322.8 629.97 334.58 650.33C347.58 672.4 379.46 704.29 401.53 717.28C434.15 736.41 478.78 746.71 513.85 743.27C595.03 735.67 660.27 681.47 682.83 603.23L688.47 584.1V376.86C688.47 183.11 688.23 168.64 684.06 153.68C664.44 84.2701 613.43 33.5101 546.23 16.3401C528.57 11.9401 495.22 8.76011 482.46 10.4701ZM434.64 163.75C463.09 170.37 478.54 199.31 469.22 228C465.54 238.79 450.83 252.53 438.32 256.69C401.29 268.95 365.24 230.94 379.21 194.4C384.11 181.89 399.32 166.69 409.38 164.48C413.3 163.74 417.47 162.76 418.7 162.27C422.62 161.06 422.87 161.06 434.64 163.75ZM598.71 170.38C638.93 194.66 620.54 259.16 573.2 259.16C535.43 259.16 512.38 215.26 533.47 183.38C547.95 161.79 575.17 156.4 598.71 170.38ZM447.64 334.69C474.86 350.63 480.01 387.17 458.43 409.98C436.6 432.54 401.04 429.35 383.87 403.36C374.55 389.63 374.06 365.59 382.64 351.86C388.53 342.54 400.05 333.96 412.07 330.03C421.15 327.09 438.81 329.3 447.64 334.69ZM586.94 330.52C625.94 343.76 633.05 393.79 599.45 417.34C590.38 423.72 586.45 424.7 573.21 424.7C559.97 424.7 556.29 423.72 546.97 417.34C526.61 402.87 519.75 378.35 530.05 355.78C539.61 334.94 565.61 323.41 586.94 330.52ZM443.23 499.25C474.62 513.72 482.22 552.71 458.19 576.75C419.44 615.25 357.15 571.35 380.94 522.3C392.46 498.76 419.93 488.46 443.23 499.25ZM587.19 497.05C617.35 505.63 630.6 543.4 612.94 570.38C587.93 608.15 529.06 591.96 525.88 546.35C523.42 511.76 553.34 487.73 587.19 497.05Z" fill="#1976D2"/>
<path d="M216.37 535.31C216.37 576.51 217.35 590.25 221.28 610.36C243.84 720.97 328.21 806.56 438.33 830.35L457.95 834.77L458.69 871.8L459.43 909.08H380.7H302.22V949.55V990H498.42H694.62V949.53V909.06H616.14H537.4L538.13 871.78L538.87 834.75L556.04 831.32C654.14 811.46 737.28 737.39 767.94 641.74C778.24 609.61 780.69 592.44 782.16 538L783.63 484.78H751.75H719.62L718.4 538C717.17 595.39 714.97 608.14 700.74 640.27C647.52 760.2 499.14 807.53 385.84 740.58C348.81 718.51 320.85 688.1 300.98 647.88C283.08 612.32 279.64 594.9 278.42 535.56L277.19 484.79H246.78H216.37V535.31Z" fill="#1976D2"/>
</svg>
