<svg xmlns="http://www.w3.org/2000/svg" xmlns:xlink="http://www.w3.org/1999/xlink" width="1200" zoomAndPan="magnify" viewBox="0 0 900 899.99999" height="1200" preserveAspectRatio="xMidYMid meet" version="1.0"><rect x="-90" width="1080" fill="#ffffff" y="-89.999999" height="1079.999988" fill-opacity="1"/><rect x="-90" width="1080" fill="#ffffff" y="-89.999999" height="1079.999988" fill-opacity="1"/><rect x="-90" width="1080" fill="#e6e8ea" y="-89.999999" height="1079.999988" fill-opacity="1"/><path fill="#ffffff" d="M 440.957031 199.535156 C 414.363281 203.046875 395.042969 212.453125 378.488281 230.019531 C 364.4375 244.945312 355.53125 263.511719 352.519531 283.582031 C 350.886719 295.121094 350.886719 478.777344 352.519531 490.316406 C 354.273438 502.234375 359.289062 516.40625 365.316406 526.820312 C 371.964844 538.109375 388.273438 554.421875 399.5625 561.066406 C 416.246094 570.851562 439.074219 576.121094 457.011719 574.359375 C 498.535156 570.472656 531.90625 542.75 543.445312 502.730469 L 546.332031 492.945312 L 546.332031 386.941406 C 546.332031 287.839844 546.207031 280.4375 544.074219 272.785156 C 534.039062 237.28125 507.949219 211.320312 473.574219 202.535156 C 464.542969 200.285156 447.484375 198.660156 440.957031 199.535156 Z M 416.496094 277.9375 C 431.046875 281.324219 438.953125 296.125 434.183594 310.800781 C 432.300781 316.320312 424.777344 323.347656 418.378906 325.476562 C 399.4375 331.746094 381 312.304688 388.144531 293.613281 C 390.648438 287.214844 398.429688 279.441406 403.574219 278.308594 C 405.582031 277.929688 407.714844 277.429688 408.34375 277.179688 C 410.347656 276.558594 410.476562 276.558594 416.496094 277.9375 Z M 500.417969 281.328125 C 520.992188 293.746094 511.585938 326.738281 487.371094 326.738281 C 468.050781 326.738281 456.261719 304.285156 467.046875 287.976562 C 474.453125 276.933594 488.378906 274.175781 500.417969 281.328125 Z M 423.144531 365.371094 C 437.070312 373.523438 439.703125 392.214844 428.664062 403.882812 C 417.5 415.421875 399.308594 413.789062 390.527344 400.496094 C 385.761719 393.472656 385.507812 381.175781 389.898438 374.15625 C 392.910156 369.386719 398.804688 365 404.953125 362.988281 C 409.597656 361.484375 418.628906 362.613281 423.144531 365.371094 Z M 494.398438 363.238281 C 514.347656 370.011719 517.984375 395.601562 500.796875 407.648438 C 496.15625 410.910156 494.148438 411.414062 487.375 411.414062 C 480.601562 411.414062 478.71875 410.910156 473.953125 407.648438 C 463.539062 400.246094 460.03125 387.703125 465.296875 376.160156 C 470.1875 365.5 483.488281 359.601562 494.398438 363.238281 Z M 420.890625 449.542969 C 436.945312 456.945312 440.832031 476.890625 428.542969 489.1875 C 408.722656 508.878906 376.859375 486.421875 389.027344 461.335938 C 394.921875 449.292969 408.972656 444.023438 420.890625 449.542969 Z M 494.527344 448.417969 C 509.953125 452.808594 516.730469 472.128906 507.695312 485.925781 C 494.902344 505.246094 464.792969 496.964844 463.164062 473.636719 C 461.90625 455.941406 477.210938 443.652344 494.527344 448.417969 Z M 494.527344 448.417969 " fill-opacity="1" fill-rule="nonzero"/><path fill="#ffffff" d="M 304.851562 467.988281 C 304.851562 489.0625 305.351562 496.089844 307.363281 506.378906 C 318.902344 562.953125 362.058594 606.734375 418.382812 618.902344 L 428.417969 621.164062 L 428.796875 640.105469 L 429.175781 659.171875 L 348.761719 659.171875 L 348.761719 700.5625 L 549.476562 700.5625 L 549.476562 659.164062 L 469.058594 659.164062 L 469.429688 640.09375 L 469.808594 621.152344 L 478.59375 619.398438 C 528.769531 609.238281 571.296875 571.351562 586.980469 522.429688 C 592.246094 505.992188 593.5 497.210938 594.253906 469.363281 L 595.003906 442.144531 L 562.265625 442.144531 L 561.640625 469.363281 C 561.011719 498.71875 559.886719 505.242188 552.605469 521.675781 C 525.382812 583.019531 449.488281 607.230469 391.535156 572.984375 C 372.59375 561.695312 358.292969 546.140625 348.128906 525.570312 C 338.972656 507.378906 337.214844 498.46875 336.589844 468.117188 L 335.960938 442.148438 L 304.851562 442.148438 Z M 304.851562 467.988281 " fill-opacity="1" fill-rule="nonzero"/></svg>